<?xml version="1.0" standalone="no"?>
<!DOCTYPE svg PUBLIC "-//W3C//DTD SVG 20010904//EN"
 "http://www.w3.org/TR/2001/REC-SVG-20010904/DTD/svg10.dtd">
<svg version="1.0" xmlns="http://www.w3.org/2000/svg"
 width="300.000000pt" height="300.000000pt" viewBox="0 0 300.000000 300.000000"
 preserveAspectRatio="xMidYMid meet">
<metadata>
Created by potrace 1.10, written by Peter Selinger 2001-2011
</metadata>
<g transform="translate(0.000000,300.000000) scale(0.100000,-0.100000)"
fill="#000000" stroke="none">
<path d="M752 2840 c-199 -22 -267 -109 -455 -585 -124 -316 -121 -306 -122
-410 0 -76 4 -97 25 -138 89 -175 326 -229 499 -113 l51 35 51 -35 c131 -88
288 -84 416 12 l31 24 52 -35 c127 -86 273 -86 400 0 l52 35 31 -24 c128 -96
285 -100 416 -12 l51 35 51 -35 c139 -93 313 -81 437 31 80 71 109 188 79 315
-21 87 -196 530 -259 652 -93 183 -160 232 -342 250 -142 14 -238 8 -272 -18
-57 -42 -52 -117 10 -155 26 -16 52 -19 171 -19 169 0 184 -7 244 -107 44 -74
233 -541 259 -638 19 -73 12 -108 -29 -146 -42 -39 -103 -47 -161 -21 -53 23
-83 67 -93 136 -8 53 -30 82 -70 92 -62 16 -109 -20 -120 -92 -10 -69 -40
-113 -93 -136 -63 -28 -121 -18 -167 28 -34 34 -38 43 -50 116 -7 43 -53 88
-91 88 -60 0 -104 -50 -104 -117 0 -103 -149 -168 -238 -105 -37 27 -62 69
-62 105 0 67 -44 117 -104 117 -38 0 -84 -45 -91 -88 -12 -73 -16 -82 -50
-116 -46 -46 -104 -56 -167 -28 -53 23 -83 67 -93 136 -8 53 -30 82 -70 92
-62 16 -109 -20 -120 -92 -10 -69 -40 -113 -93 -136 -77 -34 -164 -5 -192 63
-11 25 -11 43 -2 88 17 80 215 573 263 654 67 113 41 107 492 107 413 0 431 2
457 49 18 35 12 88 -14 118 l-24 28 -359 1 c-197 1 -391 -2 -431 -6z"/>
<path d="M559 1191 l-29 -29 0 -405 0 -405 -96 -4 c-94 -3 -96 -4 -125 -36
-32 -36 -36 -69 -14 -111 22 -43 60 -51 237 -51 212 0 248 15 248 105 0 28 -7
44 -30 65 l-30 28 0 407 0 407 -29 29 c-41 40 -91 40 -132 0z"/>
<path d="M2309 1191 l-29 -29 0 -406 0 -406 -184 0 -185 0 -4 263 c-4 293 -8
312 -70 383 -69 79 -151 104 -337 104 -186 0 -268 -25 -337 -104 -62 -71 -66
-90 -70 -386 l-5 -264 -29 -33 c-16 -19 -29 -45 -29 -59 0 -40 27 -81 61 -93
45 -15 1523 -15 1568 0 34 12 61 53 61 93 0 14 -13 40 -29 58 -29 32 -31 33
-125 36 l-96 4 0 405 0 405 -29 29 c-41 40 -91 40 -132 0z m-622 -315 l28 -24
3 -251 4 -251 -222 0 -222 0 4 251 3 251 28 24 c27 23 33 24 187 24 154 0 160
-1 187 -24z"/>
</g>
</svg>
